<svg xmlns="http://www.w3.org/2000/svg" width="32" height="32" fill="#1DB954" viewBox="0 0 24 24">
  <path d="M12 .297c-6.63 0-12 5.373-12 12 0 6.625 5.373 12 12 12s12-5.375 12-12c0-6.627-5.373-12-12-12zm5.078 17.719c-.235.386-.739.51-1.127.275-3.086-1.887-6.963-2.309-11.532-1.257-.446.105-.904-.162-1.01-.61-.104-.445.163-.902.608-1.01 5.063-1.174 9.389-.695 12.86 1.43.389.233.514.738.301 1.172zm1.6-3.157c-.295.479-.922.63-1.398.334-3.523-2.164-8.896-2.793-13.07-1.52-.539.168-1.117-.13-1.283-.672-.166-.541.13-1.117.67-1.283 4.737-1.467 10.63-.779 14.598 1.727.48.297.631.92.333 1.414zm.134-3.299c-4.23-2.52-11.275-2.755-15.272-1.498-.652.202-1.348-.162-1.55-.818-.2-.653.163-1.35.816-1.552 4.537-1.404 12.375-1.133 17.218 1.732.592.352.785 1.117.43 1.709-.353.59-1.115.785-1.644.427z"/>
</svg>
