<svg xmlns="http://www.w3.org/2000/svg" viewBox="0 0 168 168" width="48" height="48" fill="none" stroke="black" stroke-width="10">
  <circle cx="84" cy="84" r="80"/>
  <path d="M120.9 115.2c-1.6 2.6-5 3.3-7.6 1.7-20.7-12.6-46.7-15.5-77.5-8.5-3 0.7-6-1.2-6.7-4.2s1.2-6 4.2-6.7c34.5-7.8 64.3-4.4 88.6 10.3 2.6 1.7 3.3 5.1 1.8 7.4z"/>
  <path d="M131.5 91.9c-2 3.1-6.1 4-9.2 2-23.7-14.4-59.9-18.6-87.9-10.2-3.5 1-7.1-1-8-4.4s1-7.1 4.4-8c33.8-9.8 74.1-5.1 101.8 11.5 3.1 2 4 6.1 2 9.1z"/>
  <path d="M132.7 67.8c-28.2-16.5-74.8-18-101.6-9.9-4.1 1.2-8.5-1.1-9.8-5.3-1.2-4.1 1.1-8.5 5.3-9.8 31.5-9.5 84.3-7.6 117.7 11.6 3.7 2.1 5 6.9 2.8 10.6-2.1 3.6-6.9 4.9-10.6 2.8z"/>
</svg>
