<svg xmlns="http://www.w3.org/2000/svg" width="64" height="64" viewBox="0 0 24 24" fill="black">
  <path d="M16.365 1.43c.055 1.36-.508 2.513-1.34 3.356-.853.862-2.266 1.525-3.62 1.43-.066-1.276.49-2.525 1.33-3.34.88-.85 2.322-1.52 3.63-1.446zM20.006 17.002c-.64 1.49-1.378 2.95-2.435 4.29-.964 1.238-2.177 2.67-3.777 2.708-1.5.036-1.983-.88-3.692-.88s-2.262.854-3.693.915c-1.548.064-2.728-1.39-3.688-2.62C1.68 18.988.016 14.003 2.156 10.445c.935-1.583 2.602-2.574 4.382-2.574 1.526 0 2.45.893 3.682.893 1.177 0 2.067-.893 3.683-.893 1.13 0 2.316.58 3.181 1.577-2.809 1.72-2.343 6.208.922 7.554z"/>
</svg>
