<svg xmlns="http://www.w3.org/2000/svg" width="46" height="46" viewBox="0 0 48 48">
  <path fill="#4285F4" d="M24 9.5c3.15 0 5.69 1.08 7.47 2.88l5.56-5.56C33.36 3.33 28.99 1.5 24 1.5 14.78 1.5 6.91 7.5 3.87 15.58l6.79 5.28C12.12 14.99 17.61 9.5 24 9.5z"/>
  <path fill="#34A853" d="M46.14 24.5c0-1.5-.13-2.97-.39-4.38H24v8.29h12.42c-.54 2.91-2.21 5.38-4.72 7.04l7.39 5.72c4.31-3.98 6.78-9.86 6.78-16.67z"/>
  <path fill="#FBBC05" d="M10.66 28.07a14.57 14.57 0 0 1 0-8.14l-6.79-5.28a23.49 23.49 0 0 0 0 18.7l6.79-5.28z"/>
  <path fill="#EA4335" d="M24 46.5c6.42 0 11.8-2.12 15.73-5.74l-7.39-5.72c-2.06 1.39-4.68 2.2-8.34 2.2-6.39 0-11.88-5.49-13.34-12.72l-6.79 5.28C6.91 40.5 14.78 46.5 24 46.5z"/>
  <path fill="none" d="M0 0h48v48H0z"/>
</svg>
